<svg width="21" height="21" viewBox="0 0 21 21" fill="none" xmlns="http://www.w3.org/2000/svg">
<path fill-rule="evenodd" clip-rule="evenodd" d="M14.7 21H2.1C0.940201 21 0 20.0598 0 18.9V2.1C0 0.940201 0.940201 0 2.1 0H14.7C15.8598 0 16.8 0.940201 16.8 2.1V18.9C16.8 20.0598 15.8598 21 14.7 21ZM7.35 4.725C7.35 4.43504 7.58504 4.2 7.875 4.2H14.175C14.465 4.2 14.7 4.43504 14.7 4.725C14.7 5.01496 14.465 5.25 14.175 5.25H7.875C7.58504 5.25 7.35 5.01496 7.35 4.725ZM7.875 6.3C7.58504 6.3 7.35 6.53504 7.35 6.825C7.35 7.11496 7.58504 7.35 7.875 7.35H14.175C14.465 7.35 14.7 7.11496 14.7 6.825C14.7 6.53504 14.465 6.3 14.175 6.3H7.875ZM6.14623 4.35377C6.35124 4.55878 6.35124 4.89121 6.14623 5.09623L3.675 7.56745L2.25377 6.14623C2.04874 5.94121 2.04874 5.60878 2.25377 5.40377C2.4588 5.19876 2.7912 5.19876 2.99623 5.40377L3.675 6.08254L5.40377 4.35377C5.60878 4.14876 5.94121 4.14876 6.14623 4.35377ZM7.875 10.5C7.58504 10.5 7.35 10.735 7.35 11.025C7.35 11.315 7.58504 11.55 7.875 11.55H14.175C14.465 11.55 14.7 11.315 14.7 11.025C14.7 10.735 14.465 10.5 14.175 10.5H7.875ZM7.35 13.125C7.35 12.835 7.58504 12.6 7.875 12.6H14.175C14.465 12.6 14.7 12.835 14.7 13.125C14.7 13.415 14.465 13.65 14.175 13.65H7.875C7.58504 13.65 7.35 13.415 7.35 13.125ZM5.25 10.5H2.625C2.33505 10.5 2.1 10.735 2.1 11.025V13.65C2.1 13.94 2.33505 14.175 2.625 14.175H5.25C5.53996 14.175 5.775 13.94 5.775 13.65V11.025C5.775 10.735 5.53996 10.5 5.25 10.5Z" fill="#333333"/>
<path fill-rule="evenodd" clip-rule="evenodd" d="M21.0001 18.9L19.4251 21L17.8501 18.9V9.44995H21.0001V18.9Z" fill="#333333"/>
<path fill-rule="evenodd" clip-rule="evenodd" d="M18.9001 5.7749H19.9501C20.53 5.7749 21.0001 6.24499 21.0001 6.8249V8.9249H17.8501V6.8249C17.8501 6.24499 18.3202 5.7749 18.9001 5.7749Z" fill="#333333"/>
</svg>
