<svg width="34" height="40" viewBox="0 0 34 40" fill="none" xmlns="http://www.w3.org/2000/svg">
<path d="M17 19.8362C22.3656 19.8362 26.7143 15.3963 26.7143 9.91808C26.7143 4.43989 22.3656 0 17 0C11.6344 0 7.28571 4.43989 7.28571 9.91808C7.28571 15.3963 11.6344 19.8362 17 19.8362ZM23.8 22.3157H22.5326C20.8478 23.106 18.9732 23.5554 17 23.5554C15.0268 23.5554 13.1598 23.106 11.4674 22.3157H10.2C4.56875 22.3157 0 26.9803 0 32.7297V35.953C0 38.0064 1.6317 39.6723 3.64286 39.6723H30.3571C32.3683 39.6723 34 38.0064 34 35.953V32.7297C34 26.9803 29.4313 22.3157 23.8 22.3157Z" fill="black"/>
</svg>
