<svg width="48" height="47" viewBox="0 0 48 47" fill="none" xmlns="http://www.w3.org/2000/svg">
<ellipse cx="24" cy="23.1915" rx="24" ry="23.1915" fill="white"/>
<path d="M23.5444 33.1406C23.5286 33.1406 23.5159 33.1406 23.5 33.1406C15.3611 33.1501 7 35.3903 7 41.0587V41.9934H7.47596H7.95192H39.0481H39.524H40V41.0587C40 35.7135 31.7183 33.1406 23.5444 33.1406Z" fill="url(#paint0_linear_252_1270)"/>
<path d="M24.2235 38.6128L24.9755 37.1394L23.5 35.4062L22.0246 37.1394L22.7766 38.6128L21.8659 41.9999H23.5H25.1342L24.2235 38.6128Z" fill="#1565C0"/>
<path d="M26.9969 31.6768H20.0034L17.9124 33.9327L20.9204 38.5873L23.5001 35.4061L26.0799 38.5873L29.0879 33.9327L26.9969 31.6768Z" fill="url(#paint1_linear_252_1270)"/>
<path d="M23.5001 29.4434H20.6189V32.6055C20.6189 34.0345 21.7929 35.1942 23.2399 35.1942H23.7634C25.2103 35.1942 26.3844 34.0345 26.3844 32.6055V29.4434H23.5001Z" fill="#EDC391"/>
<path d="M32.172 18.7017H29.8334H17.1665H14.8279C12.959 18.7017 11.4296 20.3303 11.4296 22.3169C11.4296 24.3036 12.959 25.9322 14.8279 25.9322H17.1665H29.8302H32.1688C34.0377 25.9322 35.5672 24.3036 35.5672 22.3169C35.5672 20.3303 34.0409 18.7017 32.172 18.7017Z" fill="#EDC391"/>
<path d="M23.5 6.23047C17.9789 6.23047 12.8639 12.1271 12.8639 20.6155C12.8639 29.0564 18.1344 33.2294 23.5 33.2294C28.8657 33.2294 34.1362 29.0533 34.1362 20.6123C34.1362 12.1271 29.0212 6.23047 23.5 6.23047Z" fill="#F9DDBD"/>
<path d="M18.2835 22.9731C19.1475 22.9731 19.8478 22.2496 19.8478 21.3572C19.8478 20.4647 19.1475 19.7412 18.2835 19.7412C17.4196 19.7412 16.7192 20.4647 16.7192 21.3572C16.7192 22.2496 17.4196 22.9731 18.2835 22.9731Z" fill="#312D2D"/>
<path d="M28.7165 22.9731C29.5805 22.9731 30.2809 22.2496 30.2809 21.3572C30.2809 20.4647 29.5805 19.7412 28.7165 19.7412C27.8526 19.7412 27.1522 20.4647 27.1522 21.3572C27.1522 22.2496 27.8526 22.9731 28.7165 22.9731Z" fill="#312D2D"/>
<path d="M24.7248 24.288C24.6899 24.2754 24.6582 24.2659 24.6233 24.2627H22.3767C22.3418 24.2659 22.3069 24.2754 22.2752 24.288C22.0721 24.3704 21.961 24.5795 22.0562 24.8045C22.1514 25.0295 22.5988 25.6568 23.5 25.6568C24.4011 25.6568 24.8485 25.0263 24.9437 24.8045C25.0389 24.5795 24.9279 24.3704 24.7248 24.288Z" fill="#DBA689"/>
<path d="M26.1717 26.8481C25.1627 27.447 21.8468 27.447 20.8378 26.8481C20.2571 26.5027 19.6637 27.0319 19.9049 27.5579C20.1429 28.0743 21.9483 29.2752 23.5127 29.2752C25.077 29.2752 26.8603 28.0743 27.0982 27.5579C27.3362 27.0319 26.7524 26.5027 26.1717 26.8481Z" fill="#444444"/>
<path d="M23.5 4C23.4968 4 23.4968 4 23.4937 4C23.4905 4 23.4905 4 23.4873 4C9.07202 4.07604 12.0262 20.5206 12.0262 20.5206C12.0262 20.5206 12.6735 22.2158 12.9686 22.9635C13.0098 23.0713 13.1685 23.0586 13.1938 22.9477C13.5016 21.5726 14.609 16.6962 15.1675 15.2134C15.4975 14.3389 16.405 13.8319 17.322 13.9998C18.734 14.2565 20.9869 14.5733 23.4683 14.5733H23.4937C23.4937 14.5733 23.5127 14.5733 23.519 14.5733C26.0004 14.5733 28.2533 14.2565 29.6653 13.9998C30.5855 13.8319 31.493 14.342 31.8198 15.2134C32.3751 16.6899 33.4762 21.5377 33.7871 22.9319C33.8125 23.0459 33.9711 23.0554 34.0124 22.9477L34.958 20.5175C34.9643 20.5206 37.9185 4.07604 23.5 4Z" fill="#312D2D"/>
<path d="M34.9643 20.5206C34.9643 20.5206 37.9184 4.07604 23.5 4C23.4968 4 23.4968 4 23.4936 4C23.4904 4 23.4904 4 23.4873 4C23.262 4 23.043 4.00634 22.8273 4.01584C22.3989 4.03485 21.9832 4.06654 21.5834 4.11407C21.5802 4.11407 21.5739 4.11407 21.5707 4.11407C21.5422 4.11723 21.5168 4.12357 21.4882 4.12674C9.35438 5.65079 12.0261 20.5206 12.0261 20.5206L12.9717 22.954C13.0129 23.0618 13.1684 23.0523 13.1938 22.9382C13.5048 21.5472 14.609 16.6931 15.1675 15.2165C15.4975 14.342 16.405 13.8351 17.322 14.003C18.734 14.2596 20.9869 14.5765 23.4682 14.5765H23.4936C23.4936 14.5765 23.5126 14.5765 23.519 14.5765C26.0003 14.5765 28.2532 14.2596 29.6652 14.003C30.5854 13.8351 31.4929 14.3452 31.8198 15.2165C32.3782 16.6994 33.4856 21.5852 33.7902 22.954C33.8156 23.0681 33.9711 23.0776 34.0124 22.9699C34.3138 22.2221 34.9643 20.5206 34.9643 20.5206Z" fill="url(#paint2_radial_252_1270)"/>
<path d="M15.8878 18.7936C16.8365 17.4533 18.9911 17.3266 20.2254 18.3246C20.4221 18.4831 20.6823 18.7049 20.7585 18.952C20.8854 19.3544 20.4983 19.6681 20.1207 19.573C19.8795 19.5128 19.6542 19.3829 19.4163 19.31C18.9815 19.1738 18.6674 19.1358 18.2771 19.1358C17.6996 19.1326 17.3284 19.2055 16.7794 19.4273C16.5541 19.5192 16.3701 19.6649 16.1131 19.5572C15.818 19.4368 15.7069 19.0597 15.8878 18.7936Z" fill="#454140"/>
<path d="M30.5029 19.5571C30.4109 19.5159 30.322 19.4652 30.23 19.4272C29.6652 19.1927 29.3447 19.1325 28.7323 19.1357C28.1929 19.1389 27.8724 19.2117 27.4504 19.3543C27.1934 19.443 26.8665 19.6648 26.5809 19.5793C26.1621 19.4525 26.1748 18.9963 26.4033 18.7048C26.6761 18.3626 27.0506 18.1028 27.4472 17.9317C28.3674 17.5324 29.4907 17.5895 30.3569 18.1059C30.6393 18.2739 30.9471 18.5052 31.1184 18.7967C31.3659 19.2086 30.9915 19.7567 30.5029 19.5571Z" fill="#454140"/>
<defs>
<linearGradient id="paint0_linear_252_1270" x1="23.5" y1="33.0417" x2="23.5" y2="41.917" gradientUnits="userSpaceOnUse">
<stop offset="0.0032" stop-color="#E3F2FD"/>
<stop offset="0.2252" stop-color="#D6ECFC"/>
<stop offset="0.6348" stop-color="#B4DBFB"/>
<stop offset="1" stop-color="#90CAF9"/>
</linearGradient>
<linearGradient id="paint1_linear_252_1270" x1="23.5001" y1="38.1092" x2="23.5001" y2="32.3319" gradientUnits="userSpaceOnUse">
<stop offset="0.5" stop-color="#F5F5F5"/>
<stop offset="1" stop-color="#DADADA"/>
</linearGradient>
<radialGradient id="paint2_radial_252_1270" cx="0" cy="0" r="1" gradientUnits="userSpaceOnUse" gradientTransform="translate(23.4947 17.6461) scale(12.087 13.617)">
<stop offset="0.7945" stop-color="#454140" stop-opacity="0"/>
<stop offset="1" stop-color="#454140"/>
</radialGradient>
</defs>
</svg>
