<svg width="24" height="22" viewBox="0 0 24 22" fill="none" xmlns="http://www.w3.org/2000/svg">
<path d="M3.42855 2.99902H20.5714C20.7717 2.99892 20.9717 3.01163 21.1703 3.03705C21.103 2.56443 20.9407 2.11034 20.6931 1.70216C20.4455 1.29397 20.1179 0.940149 19.7299 0.662021C19.3418 0.383893 18.9015 0.187221 18.4355 0.0838628C17.9694 -0.0194959 17.4872 -0.0274003 17.018 0.060626L2.91962 2.46759H2.90355C2.01859 2.63682 1.23162 3.13752 0.703369 3.86741C1.49922 3.30134 2.45191 2.99776 3.42855 2.99902Z" fill="black"/>
<path d="M20.5714 4.28467H3.42857C2.51956 4.28566 1.64807 4.6472 1.0053 5.28997C0.362535 5.93274 0.000992601 6.80423 0 7.71324V17.999C0.000992601 18.908 0.362535 19.7795 1.0053 20.4222C1.64807 21.065 2.51956 21.4265 3.42857 21.4275H20.5714C21.4804 21.4265 22.3519 21.065 22.9947 20.4222C23.6375 19.7795 23.999 18.908 24 17.999V7.71324C23.999 6.80423 23.6375 5.93274 22.9947 5.28997C22.3519 4.6472 21.4804 4.28566 20.5714 4.28467ZM18.0268 14.5704C17.6877 14.5704 17.3563 14.4698 17.0744 14.2815C16.7925 14.0931 16.5727 13.8254 16.443 13.5121C16.3132 13.1989 16.2793 12.8542 16.3454 12.5217C16.4116 12.1891 16.5749 11.8837 16.8146 11.6439C17.0543 11.4042 17.3598 11.2409 17.6923 11.1747C18.0249 11.1086 18.3696 11.1426 18.6828 11.2723C18.9961 11.4021 19.2638 11.6218 19.4522 11.9037C19.6405 12.1856 19.7411 12.517 19.7411 12.8561C19.7411 13.3108 19.5605 13.7468 19.239 14.0683C18.9175 14.3898 18.4814 14.5704 18.0268 14.5704Z" fill="black"/>
<path d="M0.0267334 11.3295V5.99916C0.0267334 4.83827 0.669591 2.89202 2.90084 2.47041C4.79459 2.11523 6.66959 2.11523 6.66959 2.11523C6.66959 2.11523 7.90173 2.97238 6.88388 2.97238C5.86602 2.97238 5.89281 4.28488 6.88388 4.28488C7.87495 4.28488 6.88388 5.54381 6.88388 5.54381L2.8928 10.0706L0.0267334 11.3295Z" fill="black"/>
</svg>
