<svg width="33" height="38" viewBox="0 0 33 38" fill="none" xmlns="http://www.w3.org/2000/svg">
<path d="M16.5444 29.1409C16.5286 29.1409 16.5159 29.1409 16.5 29.1409C8.36106 29.1504 0 31.3905 0 37.059V37.9937H0.475962H0.951923H32.0481H32.524H33V37.059C33 31.7137 24.7183 29.1409 16.5444 29.1409Z" fill="url(#paint0_linear_252_1067)"/>
<path d="M17.2236 34.6128L17.9756 33.1394L16.5001 31.4062L15.0246 33.1394L15.7766 34.6128L14.866 37.9999H16.5001H18.1342L17.2236 34.6128Z" fill="#1565C0"/>
<path d="M19.9969 27.677H13.0034L10.9124 29.933L13.9204 34.5875L16.5001 31.4063L19.0799 34.5875L22.0879 29.933L19.9969 27.677Z" fill="url(#paint1_linear_252_1067)"/>
<path d="M16.5001 25.4431H13.6189V28.6053C13.6189 30.0343 14.7929 31.194 16.2399 31.194H16.7634C18.2103 31.194 19.3844 30.0343 19.3844 28.6053V25.4431H16.5001Z" fill="#EDC391"/>
<path d="M25.1718 14.7019H22.8333H10.1664H7.82781C5.95887 14.7019 4.42944 16.3305 4.42944 18.3172C4.42944 20.3038 5.95887 21.9324 7.82781 21.9324H10.1664H22.8301H25.1687C27.0376 21.9324 28.567 20.3038 28.567 18.3172C28.567 16.3305 27.0408 14.7019 25.1718 14.7019Z" fill="#EDC391"/>
<path d="M16.4999 2.23071C10.9788 2.23071 5.86377 8.12731 5.86377 16.6158C5.86377 25.0567 11.1343 29.2296 16.4999 29.2296C21.8656 29.2296 27.1361 25.0535 27.1361 16.6126C27.1361 8.12731 22.0211 2.23071 16.4999 2.23071Z" fill="#F9DDBD"/>
<path d="M11.2836 18.9731C12.1475 18.9731 12.8479 18.2496 12.8479 17.3572C12.8479 16.4647 12.1475 15.7412 11.2836 15.7412C10.4196 15.7412 9.71924 16.4647 9.71924 17.3572C9.71924 18.2496 10.4196 18.9731 11.2836 18.9731Z" fill="#312D2D"/>
<path d="M21.7164 18.9731C22.5804 18.9731 23.2808 18.2496 23.2808 17.3572C23.2808 16.4647 22.5804 15.7412 21.7164 15.7412C20.8525 15.7412 20.1521 16.4647 20.1521 17.3572C20.1521 18.2496 20.8525 18.9731 21.7164 18.9731Z" fill="#312D2D"/>
<path d="M17.7248 20.288C17.6899 20.2754 17.6582 20.2659 17.6233 20.2627H15.3767C15.3418 20.2659 15.3069 20.2754 15.2752 20.288C15.0721 20.3704 14.961 20.5795 15.0562 20.8045C15.1514 21.0295 15.5988 21.6568 16.5 21.6568C17.4011 21.6568 17.8485 21.0263 17.9437 20.8045C18.0389 20.5795 17.9279 20.3704 17.7248 20.288Z" fill="#DBA689"/>
<path d="M19.1716 22.8481C18.1625 23.447 14.8467 23.447 13.8376 22.8481C13.257 22.5027 12.6636 23.0319 12.9048 23.5579C13.1427 24.0743 14.9482 25.2752 16.5126 25.2752C18.0769 25.2752 19.8601 24.0743 20.0981 23.5579C20.3361 23.0319 19.7523 22.5027 19.1716 22.8481Z" fill="#444444"/>
<path d="M16.4999 0C16.4967 0 16.4967 0 16.4935 0C16.4904 0 16.4904 0 16.4872 0C2.07189 0.0760443 5.02603 16.5206 5.02603 16.5206C5.02603 16.5206 5.67334 18.2158 5.96843 18.9635C6.00968 19.0713 6.16834 19.0586 6.19372 18.9477C6.50151 17.5726 7.60891 12.6962 8.16738 11.2134C8.49738 10.3389 9.40487 9.83189 10.3219 9.99982C11.7339 10.2565 13.9868 10.5733 16.4681 10.5733H16.4935C16.4935 10.5733 16.5126 10.5733 16.5189 10.5733C19.0003 10.5733 21.2531 10.2565 22.6652 9.99982C23.5854 9.83189 24.4929 10.342 24.8197 11.2134C25.375 12.6899 26.476 17.5377 26.787 18.9319C26.8124 19.0459 26.971 19.0554 27.0123 18.9477L27.9579 16.5175C27.9642 16.5206 30.9183 0.0760443 16.4999 0Z" fill="#312D2D"/>
<path d="M27.9643 16.5206C27.9643 16.5206 30.9184 0.0760443 16.5 0C16.4968 0 16.4968 0 16.4936 0C16.4904 0 16.4904 0 16.4873 0C16.262 0 16.043 0.00633693 15.8273 0.0158425C15.3989 0.0348535 14.9832 0.0665386 14.5834 0.114066C14.5802 0.114066 14.5739 0.114066 14.5707 0.114066C14.5422 0.117235 14.5168 0.123572 14.4882 0.12674C2.35438 1.65079 5.02611 16.5206 5.02611 16.5206L5.97168 18.954C6.01293 19.0618 6.16842 19.0523 6.1938 18.9382C6.50476 17.5472 7.60899 12.6931 8.16745 11.2165C8.49745 10.342 9.40495 9.83506 10.322 10.003C11.734 10.2596 13.9869 10.5765 16.4682 10.5765H16.4936C16.4936 10.5765 16.5126 10.5765 16.519 10.5765C19.0003 10.5765 21.2532 10.2596 22.6652 10.003C23.5854 9.83506 24.4929 10.3452 24.8198 11.2165C25.3782 12.6994 26.4856 17.5852 26.7902 18.954C26.8156 19.0681 26.9711 19.0776 27.0124 18.9699C27.3138 18.2221 27.9643 16.5206 27.9643 16.5206Z" fill="url(#paint2_radial_252_1067)"/>
<path d="M8.88786 14.7938C9.83661 13.4535 11.9911 13.3268 13.2255 14.3249C13.4222 14.4833 13.6824 14.7051 13.7585 14.9522C13.8855 15.3546 13.4983 15.6683 13.1207 15.5733C12.8796 15.5131 12.6543 15.3832 12.4163 15.3103C11.9816 15.174 11.6675 15.136 11.2772 15.136C10.6997 15.1328 10.3284 15.2057 9.77949 15.4275C9.5542 15.5194 9.37016 15.6652 9.11314 15.5574C8.81805 15.437 8.70699 15.06 8.88786 14.7938Z" fill="#454140"/>
<path d="M23.5029 15.5573C23.4109 15.5162 23.322 15.4655 23.23 15.4274C22.6652 15.193 22.3447 15.1328 21.7323 15.1359C21.1929 15.1391 20.8724 15.212 20.4504 15.3546C20.1934 15.4433 19.8665 15.6651 19.5809 15.5795C19.1621 15.4528 19.1748 14.9965 19.4033 14.705C19.6761 14.3628 20.0506 14.103 20.4472 13.9319C21.3674 13.5327 22.4907 13.5897 23.3569 14.1062C23.6393 14.2741 23.9471 14.5054 24.1184 14.7969C24.3659 15.2088 23.9915 15.757 23.5029 15.5573Z" fill="#454140"/>
<defs>
<linearGradient id="paint0_linear_252_1067" x1="16.5" y1="29.0419" x2="16.5" y2="37.9173" gradientUnits="userSpaceOnUse">
<stop offset="0.0032" stop-color="#E3F2FD"/>
<stop offset="0.2252" stop-color="#D6ECFC"/>
<stop offset="0.6348" stop-color="#B4DBFB"/>
<stop offset="1" stop-color="#90CAF9"/>
</linearGradient>
<linearGradient id="paint1_linear_252_1067" x1="16.5001" y1="34.1094" x2="16.5001" y2="28.3321" gradientUnits="userSpaceOnUse">
<stop offset="0.5" stop-color="#F5F5F5"/>
<stop offset="1" stop-color="#DADADA"/>
</linearGradient>
<radialGradient id="paint2_radial_252_1067" cx="0" cy="0" r="1" gradientUnits="userSpaceOnUse" gradientTransform="translate(16.4947 13.6461) scale(12.087 13.617)">
<stop offset="0.7945" stop-color="#454140" stop-opacity="0"/>
<stop offset="1" stop-color="#454140"/>
</radialGradient>
</defs>
</svg>
