<svg width="22" height="23" viewBox="0 0 22 23" fill="none" xmlns="http://www.w3.org/2000/svg">
<path d="M21.7008 19.7358L17.4165 15.2912C17.2231 15.0905 16.961 14.9791 16.686 14.9791H15.9855C17.1716 13.4054 17.8763 11.426 17.8763 9.27277C17.8763 4.15045 13.8756 0 8.93815 0C4.00068 0 0 4.15045 0 9.27277C0 14.3951 4.00068 18.5455 8.93815 18.5455C11.0137 18.5455 12.9216 17.8144 14.4386 16.584V17.3107C14.4386 17.596 14.546 17.8679 14.7394 18.0685L19.0237 22.5132C19.4276 22.9323 20.0808 22.9323 20.4804 22.5132L21.6965 21.2516C22.1004 20.8325 22.1004 20.1549 21.7008 19.7358ZM8.93815 14.9791C5.90004 14.9791 3.43775 12.4291 3.43775 9.27277C3.43775 6.12092 5.89574 3.56645 8.93815 3.56645C11.9763 3.56645 14.4386 6.11646 14.4386 9.27277C14.4386 12.4246 11.9806 14.9791 8.93815 14.9791Z" fill="black"/>
</svg>
