<svg width="22" height="23" viewBox="0 0 22 23" fill="none" xmlns="http://www.w3.org/2000/svg">
<path d="M21.4925 9.35559L11.7404 0.438231C11.4234 0.148334 11.0059 -0.00855399 10.5752 0.000360077C10.1445 0.00927414 9.73397 0.1833 9.42936 0.486063L0.460281 9.40064L0 9.85807V23H8.64286V14.8002H13.3571V23H22V9.81966L21.4925 9.35559ZM10.609 1.5619C10.6229 1.5619 10.6143 1.56488 10.6084 1.57069C10.6022 1.56488 10.5952 1.5619 10.609 1.5619ZM20.4286 21.4381H14.9286V14.8002C14.9286 14.3859 14.763 13.9887 14.4683 13.6958C14.1736 13.4029 13.7739 13.2383 13.3571 13.2383H8.64286C8.22609 13.2383 7.82639 13.4029 7.53169 13.6958C7.23699 13.9887 7.07143 14.3859 7.07143 14.8002V21.4381H1.57143V10.505L10.609 1.59045C10.6096 1.58987 10.6097 1.58933 10.6102 1.58874L20.4286 10.505V21.4381Z" fill="black"/>
</svg>
