<svg width="29" height="31" viewBox="0 0 29 31" fill="none" xmlns="http://www.w3.org/2000/svg">
<path d="M12.4424 12.8517C15.8889 12.8517 18.6828 9.97475 18.6828 6.42585C18.6828 2.87695 15.8889 0 12.4424 0C8.99586 0 6.2019 2.87695 6.2019 6.42585C6.2019 9.97475 8.99586 12.8517 12.4424 12.8517Z" fill="black"/>
<path d="M16.4419 24.5992H23.204V25.9918H16.4419V24.5992Z" fill="black"/>
<path d="M10.6457 26.5887V29.5728C10.6457 29.8366 10.7475 30.0896 10.9286 30.2762C11.1098 30.4627 11.3555 30.5675 11.6117 30.5675H28.034C28.2902 30.5675 28.5359 30.4627 28.7171 30.2762C28.8982 30.0896 29 29.8366 29 29.5728V19.6257C29 19.3618 28.8982 19.1088 28.7171 18.9223C28.5359 18.7357 28.2902 18.6309 28.034 18.6309H21.2719V17.1687C21.2719 16.9049 21.1701 16.6519 20.9889 16.4653C20.8078 16.2788 20.562 16.174 20.3058 16.174C20.0496 16.174 19.8039 16.2788 19.6228 16.4653C19.4416 16.6519 19.3398 16.9049 19.3398 17.1687V18.6309H17.4078V15.0699C15.7662 14.7938 14.1058 14.6541 12.4425 14.6521C8.77431 14.636 5.14725 15.4475 1.81628 17.0295C1.26805 17.2959 0.805542 17.7186 0.483636 18.2475C0.16173 18.7765 -0.00606263 19.3894 0.000167391 20.0136V26.5887H10.6457ZM27.068 28.5781H12.5777V20.6204H19.3398V21.0382C19.3398 21.302 19.4416 21.555 19.6228 21.7415C19.8039 21.9281 20.0496 22.0329 20.3058 22.0329C20.562 22.0329 20.8078 21.9281 20.9889 21.7415C21.1701 21.555 21.2719 21.302 21.2719 21.0382V20.6204H27.068V28.5781Z" fill="black"/>
</svg>
