<svg width="12" height="17" viewBox="0 0 12 17" fill="none" xmlns="http://www.w3.org/2000/svg">
<path d="M5.99973 3.99707C5.56304 3.99707 5.13614 4.13345 4.77304 4.38895C4.40994 4.64446 4.12694 5.00761 3.95982 5.4325C3.7927 5.85739 3.74898 6.32493 3.83417 6.77599C3.91937 7.22705 4.12966 7.64137 4.43845 7.96657C4.74724 8.29176 5.14067 8.51323 5.56898 8.60295C5.99728 8.69267 6.44124 8.64662 6.84469 8.47063C7.24815 8.29463 7.59299 7.99659 7.83561 7.6142C8.07822 7.23181 8.20772 6.78224 8.20772 6.32235C8.20705 5.70586 7.97421 5.11483 7.56028 4.6789C7.14635 4.24298 6.58512 3.99777 5.99973 3.99707ZM5.99973 7.48499C5.78138 7.48499 5.56794 7.4168 5.38639 7.28905C5.20484 7.16129 5.06334 6.97972 4.97978 6.76727C4.89622 6.55483 4.87436 6.32106 4.91695 6.09553C4.95955 5.87 5.0647 5.66284 5.21909 5.50024C5.37349 5.33764 5.5702 5.22691 5.78436 5.18205C5.99851 5.13719 6.22048 5.16021 6.42221 5.24821C6.62394 5.33621 6.79636 5.48523 6.91767 5.67642C7.03898 5.86762 7.10373 6.0924 7.10373 6.32235C7.10339 6.63059 6.98697 6.92611 6.78 7.14407C6.57304 7.36203 6.29243 7.48463 5.99973 7.48499Z" fill="black"/>
<path d="M10.2426 1.85024C9.19353 0.745745 7.79318 0.0896315 6.3118 0.0085278C4.83042 -0.0725759 3.37301 0.427079 2.22087 1.41106C1.06873 2.39504 0.303529 3.79359 0.0729496 5.33679C-0.15763 6.87998 0.16276 8.45843 0.972283 9.76748L5.14355 16.5113C5.23637 16.6613 5.36329 16.7846 5.5128 16.87C5.66231 16.9553 5.82968 17 5.99974 17C6.1698 17 6.33718 16.9553 6.48669 16.87C6.6362 16.7846 6.76312 16.6613 6.85594 16.5113L11.0273 9.76748C11.7785 8.55314 12.1104 7.1038 11.9676 5.66236C11.8247 4.22093 11.2157 2.87502 10.2426 1.85024ZM10.1023 9.13286L5.99976 15.7654L1.89715 9.13286C0.641361 7.10264 0.910701 4.3857 2.53757 2.67233C2.99223 2.19351 3.53199 1.81369 4.12603 1.55455C4.72008 1.29541 5.35677 1.16203 5.99976 1.16203C6.64275 1.16203 7.27945 1.29541 7.87349 1.55455C8.46753 1.81369 9.00729 2.19351 9.46195 2.67233C11.0888 4.3857 11.3581 7.10264 10.1023 9.13286Z" fill="black"/>
</svg>
