<svg width="41" height="36" viewBox="0 0 41 36" fill="none" xmlns="http://www.w3.org/2000/svg">
<path d="M28.2826 24.2525L30.5322 22.0028C30.8838 21.6513 31.4954 21.8974 31.4954 22.4036V32.6255C31.4954 34.4885 29.9839 36 28.1209 36H3.37451C1.5115 36 0 34.4885 0 32.6255V7.87912C0 6.01611 1.5115 4.50461 3.37451 4.50461H22.6022C23.1013 4.50461 23.3544 5.10921 23.0029 5.46775L20.7532 7.71742C20.6478 7.82288 20.5072 7.87912 20.3525 7.87912H3.37451V32.6255H28.1209V24.6462C28.1209 24.4986 28.1771 24.358 28.2826 24.2525ZM39.2919 10.0655L20.8305 28.5269L14.4752 29.2299C12.6333 29.4338 11.0656 27.8801 11.2694 26.0241L11.9725 19.6688L30.4338 1.20744C32.0437 -0.40248 34.6449 -0.40248 36.2478 1.20744L39.2849 4.2445C40.8948 5.85442 40.8948 8.46263 39.2919 10.0655ZM32.346 12.2379L28.2615 8.1533L15.1993 21.2225L14.6861 25.8132L19.2769 25.3L32.346 12.2379ZM36.9016 6.63477L33.8646 3.59772C33.5763 3.30948 33.1053 3.30948 32.8241 3.59772L30.6518 5.77005L34.7363 9.85461L36.9087 7.68227C37.1899 7.387 37.1899 6.92301 36.9016 6.63477Z" fill="black"/>
</svg>
