<svg width="26" height="27" viewBox="0 0 26 27" fill="none" xmlns="http://www.w3.org/2000/svg">
<path d="M14.9454 25.1916L13.6572 26.5641C13.1117 27.1453 12.2297 27.1453 11.69 26.5641L0.409106 14.5511C-0.136369 13.9699 -0.136369 13.0301 0.409106 12.4551L11.69 0.435883C12.2355 -0.145294 13.1175 -0.145294 13.6572 0.435883L14.9454 1.80845C15.4967 2.39581 15.4851 3.35413 14.9222 3.92913L7.9297 11.0269H24.6073C25.3791 11.0269 26 11.6885 26 12.5108V14.4892C26 15.3115 25.3791 15.9731 24.6073 15.9731H7.9297L14.9222 23.0709C15.4909 23.6459 15.5025 24.6042 14.9454 25.1916Z" fill="#292D32"/>
</svg>
