<svg width="24" height="19" viewBox="0 0 24 19" fill="none" xmlns="http://www.w3.org/2000/svg">
<path d="M13.7958 17.7274L12.6066 18.6933C12.1031 19.1022 11.2889 19.1022 10.7908 18.6933L0.377636 10.2396C-0.125879 9.83066 -0.125879 9.16934 0.377636 8.76471L10.7908 0.306732C11.2943 -0.102244 12.1085 -0.102244 12.6066 0.306732L13.7958 1.27261C14.3047 1.68594 14.2939 2.36032 13.7744 2.76494L7.31972 7.75968H22.7144C23.4268 7.75968 24 8.22521 24 8.80387V10.1961C24 10.7748 23.4268 11.2403 22.7144 11.2403H7.31972L13.7744 16.2351C14.2993 16.6397 14.31 17.3141 13.7958 17.7274Z" fill="black"/>
</svg>
