<svg width="34" height="33" viewBox="0 0 34 33" fill="none" xmlns="http://www.w3.org/2000/svg">
<path d="M16.9993 14.2794C19.7924 14.2794 22.0567 12.0437 22.0567 9.28581C22.0567 6.52794 19.7924 4.29224 16.9993 4.29224C14.2063 4.29224 11.942 6.52794 11.942 9.28581C11.942 12.0437 14.2063 14.2794 16.9993 14.2794Z" fill="black"/>
<path d="M9.32843 9.78519H9.83841C9.83841 9.62582 9.83841 9.4877 9.83841 9.32833C9.84151 7.99983 10.2163 6.6987 10.9204 5.57213C11.6245 4.44555 12.6298 3.5385 13.8226 2.95356C13.4695 2.14031 12.9027 1.43789 12.1825 0.920894C11.4622 0.403902 10.6153 0.091647 9.73185 0.0172934C8.84836 -0.0570602 7.96124 0.109264 7.16469 0.498601C6.36814 0.887938 5.69192 1.48575 5.20784 2.22854C4.72376 2.97133 4.4499 3.83137 4.41535 4.7173C4.3808 5.60324 4.58685 6.48199 5.01161 7.26022C5.43638 8.03845 6.06399 8.68711 6.8278 9.1373C7.59161 9.58749 8.46309 9.82239 9.34968 9.81707L9.32843 9.78519Z" fill="black"/>
<path d="M24.1816 9.2858V9.74266H24.6916C25.5664 9.73388 26.4226 9.48943 27.1702 9.03505C27.9178 8.58067 28.529 7.93315 28.9396 7.16066C29.3502 6.38818 29.5449 5.51928 29.5034 4.64544C29.4618 3.77161 29.1853 2.92514 28.7032 2.19515C28.2211 1.46515 27.5511 0.878633 26.7638 0.497317C25.9764 0.116001 25.1008 -0.0460041 24.2292 0.0283532C23.3575 0.10271 22.522 0.41068 21.8106 0.919846C21.0992 1.42901 20.5383 2.12054 20.1868 2.92165C21.3799 3.5043 22.3864 4.40906 23.0923 5.53369C23.7983 6.65832 24.1756 7.95798 24.1816 9.2858Z" fill="black"/>
<path d="M21.5574 14.7788C23.6698 15.1969 25.7124 15.9124 27.624 16.9037C27.8934 17.0517 28.1373 17.2418 28.3465 17.4668H33.9988V13.8332C33.9998 13.6939 33.9628 13.5569 33.8916 13.437C33.8205 13.3172 33.7179 13.2191 33.5951 13.1532C30.8413 11.7129 27.7781 10.9653 24.6704 10.9752H23.9692C23.601 12.4719 22.7541 13.8075 21.5574 14.7788Z" fill="black"/>
<path d="M4.81298 19.5281C4.81104 18.993 4.95554 18.4676 5.23084 18.0088C5.50615 17.5499 5.90175 17.1752 6.3748 16.9251C8.28647 15.9337 10.329 15.2183 12.4415 14.8002C11.2505 13.8371 10.4042 12.5136 10.0297 11.0284H9.32844C6.22077 11.0185 3.1575 11.7661 0.403757 13.2065C0.280903 13.2723 0.178361 13.3704 0.107207 13.4902C0.0360533 13.6101 -0.00100968 13.7471 2.09218e-05 13.8864V20.6756H4.81298V19.5281Z" fill="black"/>
<path d="M20.6755 25.6584H27.0078V27.1459H20.6755V25.6584Z" fill="black"/>
<path d="M32.7345 19.8891H25.4354V18.8266C25.4354 18.5449 25.3234 18.2746 25.1242 18.0754C24.9249 17.8761 24.6547 17.7642 24.3729 17.7642C24.0911 17.7642 23.8209 17.8761 23.6216 18.0754C23.4224 18.2746 23.3104 18.5449 23.3104 18.8266V19.8891H21.2493V16.8823C19.8514 16.5888 18.4277 16.4357 16.9994 16.4255C13.646 16.4115 10.3405 17.2215 7.3735 18.7841C7.24134 18.8527 7.13071 18.9565 7.05384 19.084C6.97696 19.2115 6.93683 19.3577 6.93789 19.5066V25.467H14.492V31.9374C14.492 32.2192 14.6039 32.4894 14.8032 32.6887C15.0024 32.8879 15.2727 32.9999 15.5545 32.9999H32.7345C33.0163 32.9999 33.2865 32.8879 33.4858 32.6887C33.685 32.4894 33.7969 32.2192 33.7969 31.9374V20.9516C33.7969 20.6698 33.685 20.3995 33.4858 20.2003C33.2865 20.001 33.0163 19.8891 32.7345 19.8891ZM31.672 30.8962H16.6169V22.014H23.3104V22.9809C23.3104 23.2626 23.4224 23.5329 23.6216 23.7321C23.8209 23.9314 24.0911 24.0433 24.3729 24.0433C24.6547 24.0433 24.9249 23.9314 25.1242 23.7321C25.3234 23.5329 25.4354 23.2626 25.4354 22.9809V22.014H31.672V30.8962Z" fill="black"/>
</svg>
