<svg width="25" height="26" viewBox="0 0 25 26" fill="none" xmlns="http://www.w3.org/2000/svg">
<path d="M18.5185 22.7685L16.1204 20.3704L14.8148 21.6759L18.5185 25.3796L25 18.8981L23.6944 17.5926L18.5185 22.7685Z" fill="black"/>
<path d="M10.1852 19.4444H12.037V21.2963H10.1852V19.4444Z" fill="black"/>
<path d="M4.62963 19.4444H6.48148V21.2963H4.62963V19.4444Z" fill="black"/>
<path d="M15.7407 14.8148H17.5926V16.6667H15.7407V14.8148Z" fill="black"/>
<path d="M10.1852 14.8148H12.037V16.6667H10.1852V14.8148Z" fill="black"/>
<path d="M4.62963 14.8148H6.48148V16.6667H4.62963V14.8148Z" fill="black"/>
<path d="M15.7407 10.1852H17.5926V12.037H15.7407V10.1852Z" fill="black"/>
<path d="M10.1852 10.1852H12.037V12.037H10.1852V10.1852Z" fill="black"/>
<path d="M4.62963 10.1852H6.48148V12.037H4.62963V10.1852Z" fill="black"/>
<path d="M4.62963 4.62963H17.5926V7.40741H4.62963V4.62963Z" fill="black"/>
<path d="M12.037 25.9259H1.85611C1.36397 25.9253 0.892163 25.7296 0.544194 25.3815C0.196225 25.0335 0.000514592 24.5617 0 24.0695V1.84824C0.00056364 1.35823 0.19547 0.88845 0.54196 0.54196C0.88845 0.195469 1.35823 0.00056364 1.84824 0H20.3738C20.8638 0.000539091 21.3336 0.195431 21.6802 0.541921C22.0267 0.888412 22.2216 1.35821 22.2222 1.84824V14.8148H20.3704V1.85185H1.85185V24.0741H12.037V25.9259Z" fill="black"/>
</svg>
