<svg width="29" height="29" viewBox="0 0 29 29" fill="none" xmlns="http://www.w3.org/2000/svg">
<path d="M12.1062 13.0337C10.8028 13.0337 9.5288 12.6515 8.44513 11.9354C7.36146 11.2193 6.51685 10.2015 6.01809 9.01073C5.51933 7.81993 5.38884 6.50961 5.6431 5.24547C5.89737 3.98133 6.52497 2.82014 7.44655 1.90874C8.36814 0.997345 9.54231 0.376676 10.8206 0.125222C12.0989 -0.126232 13.4238 0.00282364 14.6279 0.496068C15.832 0.989312 16.8612 1.82459 17.5853 2.89628C18.3094 3.96797 18.6958 5.22793 18.6958 6.51684C18.6958 8.24522 18.0016 9.9028 16.7658 11.1249C15.53 12.3471 13.8539 13.0337 12.1062 13.0337ZM12.1062 1.93644C11.1752 1.93644 10.2652 2.20944 9.49114 2.72093C8.71709 3.23241 8.1138 3.9594 7.75754 4.80997C7.40129 5.66054 7.30807 6.59649 7.48969 7.49945C7.67131 8.4024 8.1196 9.23183 8.77787 9.88282C9.43615 10.5338 10.2748 10.9772 11.1879 11.1568C12.1009 11.3364 13.0473 11.2442 13.9074 10.8919C14.7675 10.5396 15.5026 9.94293 16.0198 9.17744C16.537 8.41195 16.8131 7.51197 16.8131 6.59132C16.8131 5.98003 16.6913 5.37473 16.4548 4.80997C16.2182 4.24522 15.8715 3.73207 15.4345 3.29982C14.9974 2.86757 14.4785 2.5247 13.9074 2.29077C13.3363 2.05684 12.7243 1.93644 12.1062 1.93644Z" fill="black"/>
<path d="M17.3497 14.1601C12.2553 13.0264 6.92581 13.5725 2.17463 15.7148C1.52121 16.0235 0.969903 16.5094 0.584912 17.1159C0.199922 17.7225 -0.00291171 18.4247 3.15827e-05 19.1408V24.6802C3.15801e-05 24.8024 0.0243813 24.9235 0.0716902 25.0364C0.118999 25.1494 0.188341 25.252 0.275756 25.3385C0.363172 25.4249 0.466949 25.4935 0.581163 25.5403C0.695377 25.587 0.81779 25.6111 0.941415 25.6111C1.06504 25.6111 1.18745 25.587 1.30167 25.5403C1.41588 25.4935 1.51966 25.4249 1.60707 25.3385C1.69449 25.252 1.76383 25.1494 1.81114 25.0364C1.85845 24.9235 1.8828 24.8024 1.8828 24.6802V19.1408C1.8746 18.7784 1.97356 18.4215 2.16755 18.1139C2.36153 17.8063 2.64209 17.5614 2.9748 17.4092C5.83686 16.1023 8.95382 15.4318 12.1062 15.4449C13.8725 15.4426 15.6328 15.6489 17.3497 16.0593V14.1601Z" fill="black"/>
<path d="M17.4816 23.0137H23.2617V24.317H17.4816V23.0137Z" fill="black"/>
<path d="M27.865 17.4838H22.998V19.3458H26.9236V27.1381H13.5842V19.3458H19.5149V19.7368C19.5149 19.9837 19.6141 20.2205 19.7906 20.3951C19.9672 20.5697 20.2066 20.6678 20.4563 20.6678C20.7059 20.6678 20.9454 20.5697 21.1219 20.3951C21.2985 20.2205 21.3977 19.9837 21.3977 19.7368V16.1153C21.3977 15.8684 21.2985 15.6316 21.1219 15.457C20.9454 15.2824 20.7059 15.1843 20.4563 15.1843C20.2066 15.1843 19.9672 15.2824 19.7906 15.457C19.6141 15.6316 19.5149 15.8684 19.5149 16.1153V17.4838H12.6428C12.3931 17.4838 12.1537 17.5819 11.9771 17.7565C11.8006 17.9311 11.7014 18.1679 11.7014 18.4148V28.0691C11.7014 28.316 11.8006 28.5528 11.9771 28.7274C12.1537 28.9019 12.3931 29 12.6428 29H27.865C28.1146 29 28.3541 28.9019 28.5306 28.7274C28.7072 28.5528 28.8063 28.316 28.8063 28.0691V18.4148C28.8063 18.1679 28.7072 17.9311 28.5306 17.7565C28.3541 17.5819 28.1146 17.4838 27.865 17.4838Z" fill="black"/>
</svg>
