<svg width="49" height="44" viewBox="0 0 49 44" fill="none" xmlns="http://www.w3.org/2000/svg">
<ellipse cx="24.1192" cy="22" rx="24.1192" ry="22" fill="white"/>
<path d="M23.6613 31.4381C23.6453 31.4381 23.6326 31.4381 23.6166 31.4381C15.4372 31.4471 7.03467 33.5721 7.03467 38.9494V39.8361H7.513H7.99132H39.2419H39.7202H40.1985V38.9494C40.1985 33.8787 31.8757 31.4381 23.6613 31.4381Z" fill="url(#paint0_linear_252_1229)"/>
<path d="M24.3437 36.6291L25.0995 35.2314L23.6167 33.5873L22.1339 35.2314L22.8896 36.6291L21.9744 39.8422H23.6167H25.2589L24.3437 36.6291Z" fill="#021864"/>
<path d="M27.1308 30.0496H20.1027L18.0012 32.1896L21.0242 36.6051L23.6167 33.5873L26.2093 36.6051L29.2323 32.1896L27.1308 30.0496Z" fill="url(#paint1_linear_252_1229)"/>
<path d="M23.6167 27.9305H20.7212V30.9302C20.7212 32.2858 21.9011 33.3859 23.3552 33.3859H23.8814C25.3355 33.3859 26.5153 32.2858 26.5153 30.9302V27.9305H23.6167Z" fill="#EDC391"/>
<path d="M32.3316 17.7411H29.9815H17.2516H14.9015C13.0232 17.7411 11.4862 19.2861 11.4862 21.1707C11.4862 23.0552 13.0232 24.6002 14.9015 24.6002H17.2516H29.9783H32.3284C34.2067 24.6002 35.7437 23.0552 35.7437 21.1707C35.7437 19.2861 34.2099 17.7411 32.3316 17.7411Z" fill="#EDC391"/>
<path d="M23.6167 5.91053C18.0681 5.91053 12.9277 11.5042 12.9277 19.5565C12.9277 27.5638 18.2244 31.5223 23.6167 31.5223C29.009 31.5223 34.3056 27.5608 34.3056 19.5535C34.3056 11.5042 29.1652 5.91053 23.6167 5.91053Z" fill="#F9DDBD"/>
<path d="M18.3743 21.7927C19.2425 21.7927 19.9464 21.1064 19.9464 20.2598C19.9464 19.4132 19.2425 18.7269 18.3743 18.7269C17.5061 18.7269 16.8022 19.4132 16.8022 20.2598C16.8022 21.1064 17.5061 21.7927 18.3743 21.7927Z" fill="#312D2D"/>
<path d="M28.8591 21.7927C29.7273 21.7927 30.4312 21.1064 30.4312 20.2598C30.4312 19.4132 29.7273 18.7269 28.8591 18.7269C27.9908 18.7269 27.287 19.4132 27.287 20.2598C27.287 21.1064 27.9908 21.7927 28.8591 21.7927Z" fill="#312D2D"/>
<path d="M24.8475 23.0403C24.8124 23.0283 24.7805 23.0192 24.7455 23.0162H22.4878C22.4527 23.0192 22.4176 23.0283 22.3857 23.0403C22.1816 23.1184 22.07 23.3168 22.1657 23.5302C22.2614 23.7436 22.711 24.3388 23.6166 24.3388C24.5223 24.3388 24.9719 23.7406 25.0675 23.5302C25.1632 23.3168 25.0516 23.1184 24.8475 23.0403Z" fill="#DBA689"/>
<path d="M26.3017 25.4688C25.2876 26.0368 21.9553 26.0368 20.9413 25.4688C20.3577 25.1411 19.7614 25.6431 20.0037 26.142C20.2429 26.632 22.0573 27.7711 23.6294 27.7711C25.2015 27.7711 26.9937 26.632 27.2328 26.142C27.472 25.6431 26.8852 25.1411 26.3017 25.4688Z" fill="#444444"/>
<path d="M23.6166 3.79436C23.6134 3.79436 23.6134 3.79436 23.6102 3.79436C23.607 3.79436 23.607 3.79436 23.6038 3.79436C9.11698 3.8665 12.0858 19.4662 12.0858 19.4662C12.0858 19.4662 12.7363 21.0743 13.0329 21.7836C13.0743 21.8858 13.2338 21.8738 13.2593 21.7686C13.5686 20.4641 14.6815 15.8383 15.2427 14.4316C15.5744 13.602 16.4864 13.1211 17.4079 13.2804C18.827 13.5239 21.091 13.8245 23.5847 13.8245H23.6102C23.6102 13.8245 23.6294 13.8245 23.6357 13.8245C26.1294 13.8245 28.3935 13.5239 29.8125 13.2804C30.7373 13.1211 31.6493 13.605 31.9777 14.4316C32.5358 15.8323 33.6423 20.431 33.9548 21.7536C33.9803 21.8618 34.1398 21.8708 34.1812 21.7686L35.1315 19.4632C35.1379 19.4662 38.1067 3.8665 23.6166 3.79436Z" fill="#312D2D"/>
<path d="M35.1378 19.4662C35.1378 19.4662 38.1066 3.8665 23.6166 3.79436C23.6134 3.79436 23.6134 3.79436 23.6102 3.79436C23.607 3.79436 23.607 3.79436 23.6038 3.79436C23.3774 3.79436 23.1574 3.80038 22.9405 3.80939C22.51 3.82743 22.0923 3.85748 21.6905 3.90257C21.6873 3.90257 21.6809 3.90257 21.6778 3.90257C21.6491 3.90558 21.6235 3.91159 21.5948 3.91459C9.40074 5.36035 12.0857 19.4662 12.0857 19.4662L13.036 21.7746C13.0775 21.8768 13.2337 21.8678 13.2592 21.7596C13.5717 20.4401 14.6815 15.8353 15.2427 14.4346C15.5743 13.605 16.4863 13.1241 17.4079 13.2834C18.8269 13.5269 21.091 13.8275 23.5847 13.8275H23.6102C23.6102 13.8275 23.6293 13.8275 23.6357 13.8275C26.1294 13.8275 28.3934 13.5269 29.8125 13.2834C30.7372 13.1241 31.6492 13.6081 31.9777 14.4346C32.5389 15.8413 33.6518 20.4761 33.958 21.7746C33.9835 21.8828 34.1397 21.8918 34.1812 21.7896C34.4841 21.0803 35.1378 19.4662 35.1378 19.4662Z" fill="url(#paint2_radial_252_1229)"/>
<path d="M15.9666 17.8283C16.92 16.5568 19.0852 16.4366 20.3257 17.3834C20.5234 17.5337 20.7849 17.7441 20.8614 17.9785C20.989 18.3603 20.5999 18.6578 20.2205 18.5677C19.9781 18.5106 19.7517 18.3873 19.5125 18.3182C19.0757 18.1889 18.76 18.1529 18.3678 18.1529C17.7874 18.1499 17.4143 18.219 16.8626 18.4294C16.6362 18.5166 16.4513 18.6548 16.193 18.5526C15.8964 18.4384 15.7848 18.0807 15.9666 17.8283Z" fill="#454140"/>
<path d="M30.6542 18.5527C30.5618 18.5136 30.4725 18.4655 30.38 18.4294C29.8124 18.207 29.4903 18.1499 28.8749 18.1529C28.3328 18.1559 28.0107 18.225 27.5866 18.3603C27.3283 18.4445 26.9998 18.6549 26.7128 18.5737C26.2919 18.4535 26.3047 18.0206 26.5343 17.7441C26.8085 17.4195 27.1848 17.173 27.5834 17.0107C28.5081 16.632 29.637 16.6861 30.5075 17.176C30.7914 17.3353 31.1007 17.5548 31.2729 17.8313C31.5216 18.222 31.1453 18.742 30.6542 18.5527Z" fill="#454140"/>
<defs>
<linearGradient id="paint0_linear_252_1229" x1="23.6166" y1="31.3442" x2="23.6166" y2="39.7636" gradientUnits="userSpaceOnUse">
<stop offset="0.0032" stop-color="#E3F2FD"/>
<stop offset="0.2252" stop-color="#D6ECFC"/>
<stop offset="0.6348" stop-color="#B4DBFB"/>
<stop offset="1" stop-color="#90CAF9"/>
</linearGradient>
<linearGradient id="paint1_linear_252_1229" x1="23.6167" y1="36.1515" x2="23.6167" y2="30.671" gradientUnits="userSpaceOnUse">
<stop offset="0.5" stop-color="#F5F5F5"/>
<stop offset="1" stop-color="#DADADA"/>
</linearGradient>
<radialGradient id="paint2_radial_252_1229" cx="0" cy="0" r="1" gradientUnits="userSpaceOnUse" gradientTransform="translate(23.6113 16.7393) scale(12.1471 12.9174)">
<stop offset="0.7945" stop-color="#454140" stop-opacity="0"/>
<stop offset="1" stop-color="#454140"/>
</radialGradient>
</defs>
</svg>
