<svg width="34" height="34" viewBox="0 0 34 34" fill="none" xmlns="http://www.w3.org/2000/svg">
<path d="M17 0C7.61113 0 0 7.61113 0 17C0 26.3889 7.61113 34 17 34C26.3889 34 34 26.3889 34 17C34 7.61113 26.3889 0 17 0ZM17 3.29032C24.5768 3.29032 30.7097 9.42204 30.7097 17C30.7097 24.5768 24.578 30.7097 17 30.7097C9.42321 30.7097 3.29032 24.578 3.29032 17C3.29032 9.42321 9.42204 3.29032 17 3.29032ZM26.6108 12.2199L25.066 10.6626C24.746 10.3401 24.2252 10.338 23.9027 10.658L14.2132 20.2696L10.1146 16.1377C9.79467 15.8151 9.27384 15.813 8.95132 16.1329L7.39397 17.6777C7.07145 17.9977 7.06933 18.5185 7.38931 18.8411L13.6122 25.1143C13.9321 25.4369 14.4529 25.439 14.7755 25.119L26.6062 13.3833C26.9286 13.0633 26.9307 12.5424 26.6108 12.2199Z" fill="black"/>
</svg>
