<svg width="23" height="21" viewBox="0 0 23 21" fill="none" xmlns="http://www.w3.org/2000/svg">
<path d="M13.8367 0C14.5659 0 15.2378 0.377691 15.6186 0.988702L15.7151 1.16102L16.5341 2.79915H18.9C20.7556 2.79915 22.274 4.2433 22.3925 6.06902L22.4 6.29915V17.5C22.4 19.3557 20.9558 20.8741 19.1301 20.9926L18.9 21H3.49999C1.64432 21 0.125946 19.5558 0.00744475 17.7301L0 17.5V6.29915C0 4.44346 1.44415 2.9251 3.26987 2.8066L3.49999 2.79915H5.86526L6.69054 1.157C7.01732 0.506787 7.6546 0.07643 8.37004 0.00921915L8.56692 0H13.8367ZM13.8367 1.4H8.56692C8.3464 1.4 8.14158 1.50363 8.01067 1.675L7.94146 1.78567L6.92236 3.81348C6.82333 4.01052 6.63877 4.14699 6.42686 4.187L6.29689 4.19915H3.49999C2.40842 4.19915 1.51137 5.03199 1.40961 6.0969L1.4 6.29915V17.5C1.4 18.5915 2.23284 19.4886 3.29775 19.5904L3.49999 19.6H18.9C19.9915 19.6 20.8886 18.7671 20.9903 17.7022L21 17.5V6.29915C21 5.20757 20.1671 4.31052 19.1022 4.20876L18.9 4.19915H16.1014C15.8804 4.19915 15.6753 4.0951 15.5444 3.92316L15.4753 3.81214L14.463 1.787C14.3641 1.58935 14.1793 1.45237 13.967 1.41219L13.8367 1.4ZM11.1934 5.60003C14.2861 5.60003 16.7934 8.10723 16.7934 11.2C16.7934 14.2928 14.2861 16.8 11.1934 16.8C8.10061 16.8 5.59341 14.2928 5.59341 11.2C5.59341 8.10723 8.10061 5.60003 11.1934 5.60003ZM11.1934 7.00003C8.87381 7.00003 6.99341 8.88043 6.99341 11.2C6.99341 13.5197 8.87381 15.4 11.1934 15.4C13.5131 15.4 15.3934 13.5197 15.3934 11.2C15.3934 8.88043 13.5131 7.00003 11.1934 7.00003Z" fill="#212121"/>
</svg>
