<svg width="25" height="25" viewBox="0 0 25 25" fill="none" xmlns="http://www.w3.org/2000/svg">
<path d="M2.51858 2.5L10.6823 12.6263C11.0397 13.0698 11.2342 13.6208 11.2339 14.1888V22.5L13.7528 20.625V14.1875C13.7529 13.62 13.9474 13.0694 14.3045 12.6263L22.4682 2.5H2.51984H2.51858ZM2.51858 0H22.4682C22.9427 5.87508e-05 23.4076 0.133154 23.8092 0.383957C24.2109 0.63476 24.533 0.993067 24.7385 1.41761C24.9439 1.84215 25.0243 2.31566 24.9705 2.78359C24.9167 3.25152 24.7308 3.69485 24.4342 4.0625L16.2717 14.1875V20.625C16.2717 21.0131 16.1807 21.3959 16.0058 21.743C15.8309 22.0902 15.577 22.3921 15.2642 22.625L12.7453 24.5C12.371 24.7786 11.9261 24.9482 11.4602 24.9899C10.9943 25.0316 10.5259 24.9437 10.1075 24.7361C9.68906 24.5284 9.33718 24.2093 9.09125 23.8143C8.84532 23.4194 8.71505 22.9643 8.71505 22.5V14.1875L0.552584 4.0625C0.256002 3.69485 0.0700891 3.25152 0.0162601 2.78359C-0.0375689 2.31566 0.0428752 1.84215 0.248327 1.41761C0.453778 0.993067 0.77588 0.63476 1.17753 0.383957C1.57918 0.133154 2.04405 5.87508e-05 2.51858 0Z" fill="black"/>
</svg>
