<svg width="33" height="26" viewBox="0 0 33 26" fill="none" xmlns="http://www.w3.org/2000/svg">
<path d="M16.6764 11.7028C15.5341 11.6932 14.4209 11.4149 13.4769 10.9029C12.533 10.391 11.8004 9.66818 11.3716 8.82561C10.9428 7.98304 10.8368 7.05833 11.067 6.16792C11.2972 5.27752 11.8533 4.46121 12.6653 3.82179C13.4773 3.18236 14.5089 2.7484 15.6301 2.57454C16.7514 2.40068 17.9123 2.4947 18.9665 2.84475C20.0208 3.19481 20.9213 3.78525 21.5548 4.54175C22.1882 5.29824 22.5263 6.18696 22.5264 7.09602C22.5156 8.32358 21.8939 9.4977 20.7974 10.3612C19.7009 11.2247 18.219 11.7071 16.6764 11.7028ZM16.6764 4.10566C15.9359 4.11522 15.2154 4.29869 14.6055 4.63303C13.9956 4.96737 13.5234 5.43767 13.2483 5.98486C12.9733 6.53205 12.9075 7.13172 13.0593 7.70857C13.2111 8.28541 13.5737 8.81369 14.1016 9.22706C14.6295 9.64044 15.2991 9.92046 16.0263 10.032C16.7535 10.1435 17.506 10.0815 18.1891 9.85381C18.8722 9.62612 19.4555 9.24288 19.8658 8.75222C20.2761 8.26156 20.495 7.68537 20.4951 7.09602C20.4844 6.29716 20.0767 5.53417 19.3611 4.97382C18.6455 4.41347 17.6803 4.10134 16.6764 4.10566Z" fill="black"/>
<path d="M16.6764 11.7028C15.5341 11.6932 14.4209 11.4149 13.4769 10.9029C12.533 10.391 11.8004 9.66818 11.3716 8.82561C10.9428 7.98304 10.8368 7.05833 11.067 6.16792C11.2972 5.27752 11.8533 4.46121 12.6653 3.82179C13.4773 3.18236 14.5089 2.7484 15.6301 2.57454C16.7514 2.40068 17.9123 2.4947 18.9665 2.84475C20.0208 3.19481 20.9213 3.78525 21.5548 4.54175C22.1882 5.29824 22.5263 6.18696 22.5264 7.09602C22.5156 8.32358 21.8939 9.4977 20.7974 10.3612C19.7009 11.2247 18.219 11.7071 16.6764 11.7028ZM16.6764 4.10566C15.9359 4.11522 15.2154 4.29869 14.6055 4.63303C13.9956 4.96737 13.5234 5.43767 13.2483 5.98486C12.9733 6.53205 12.9075 7.13172 13.0593 7.70857C13.2111 8.28541 13.5737 8.81369 14.1016 9.22706C14.6295 9.64044 15.2991 9.92046 16.0263 10.032C16.7535 10.1435 17.506 10.0815 18.1891 9.85381C18.8722 9.62612 19.4555 9.24288 19.8658 8.75222C20.2761 8.26156 20.495 7.68537 20.4951 7.09602C20.4844 6.29716 20.0767 5.53417 19.3611 4.97382C18.6455 4.41347 17.6803 4.10134 16.6764 4.10566Z" fill="black"/>
<path d="M20.2209 12.7858C15.7161 12.162 11.0786 12.7298 7.01778 14.4022C6.72952 14.5296 6.49083 14.7176 6.32783 14.9457C6.16482 15.1737 6.08378 15.4331 6.09357 15.6953V18.5726C6.09357 18.7869 6.20057 18.9925 6.39104 19.144C6.5815 19.2956 6.83983 19.3808 7.10919 19.3808C7.37855 19.3808 7.63688 19.2956 7.82734 19.144C8.01781 18.9925 8.12481 18.7869 8.12481 18.5726V15.8004C11.8904 14.2969 16.1726 13.8198 20.3123 14.4426L20.2209 12.7858Z" fill="black"/>
<path d="M31.4844 16.3015H24.6797V15.1053C24.6797 14.891 24.5727 14.6854 24.3822 14.5338C24.1917 14.3823 23.9334 14.2971 23.664 14.2971C23.3947 14.2971 23.1364 14.3823 22.9459 14.5338C22.7554 14.6854 22.6484 14.891 22.6484 15.1053V16.3015H15.2344C14.965 16.3015 14.7067 16.3866 14.5162 16.5382C14.3258 16.6898 14.2188 16.8953 14.2188 17.1097V25.1917C14.2188 25.4061 14.3258 25.6116 14.5162 25.7632C14.7067 25.9148 14.965 25.9999 15.2344 25.9999H31.4844C31.7537 25.9999 32.012 25.9148 32.2025 25.7632C32.393 25.6116 32.5 25.4061 32.5 25.1917V17.1097C32.5 16.8953 32.393 16.6898 32.2025 16.5382C32.012 16.3866 31.7537 16.3015 31.4844 16.3015ZM30.4687 24.3835H16.25V17.9179H22.6484V18.2492C22.6484 18.4636 22.7554 18.6692 22.9459 18.8207C23.1364 18.9723 23.3947 19.0574 23.664 19.0574C23.9334 19.0574 24.1917 18.9723 24.3822 18.8207C24.5727 18.6692 24.6797 18.4636 24.6797 18.2492V17.9179H30.4687V24.3835Z" fill="black"/>
<path d="M20.1196 20.6821H26.1727V21.8136H20.1196V20.6821Z" fill="black"/>
<path d="M8.97811 8.41357C6.1663 8.45101 3.40325 9.00416 0.903905 10.03C0.632086 10.1442 0.404398 10.3151 0.245187 10.5244C0.0859748 10.7337 0.0012257 10.9734 0 11.218V13.7235C0 13.9378 0.107003 14.1434 0.297469 14.295C0.487936 14.4465 0.746263 14.5317 1.01562 14.5317C1.28498 14.5317 1.54331 14.4465 1.73378 14.295C1.92424 14.1434 2.03125 13.9378 2.03125 13.7235V11.3797C4.41928 10.4338 7.06322 9.97024 9.72967 10.03C9.38081 9.52346 9.12757 8.97881 8.97811 8.41357Z" fill="black"/>
<path d="M31.5962 10.0217C29.3546 9.08595 26.891 8.53526 24.3649 8.40527C24.2162 8.96951 23.9665 9.51386 23.6235 10.0217C26.0032 10.067 28.3408 10.5307 30.4688 11.3795V13.7233C30.4688 13.9376 30.5758 14.1432 30.7663 14.2947C30.9568 14.4463 31.2151 14.5315 31.4845 14.5315C31.7538 14.5315 32.0121 14.4463 32.2026 14.2947C32.3931 14.1432 32.5001 13.9376 32.5001 13.7233V11.2178C32.5007 10.9718 32.4168 10.7304 32.2575 10.5196C32.0982 10.3087 31.8695 10.1366 31.5962 10.0217Z" fill="black"/>
<path d="M8.79531 7.0961C8.79531 6.91021 8.79531 6.7324 8.79531 6.5546C7.99968 6.46987 7.27578 6.14422 6.77429 5.64545C6.27279 5.14667 6.03236 4.5132 6.10303 3.8769C6.17369 3.2406 6.55002 2.65051 7.15367 2.22945C7.75732 1.8084 8.54178 1.58884 9.34374 1.61647C10.1779 1.61526 10.9796 1.87337 11.5781 2.33577C12.1061 1.9892 12.6861 1.69601 13.3047 1.46291C12.6137 0.830614 11.6981 0.379783 10.6787 0.169837C9.65923 -0.0401092 8.58378 0.000684336 7.59407 0.286841C6.60435 0.572998 5.74683 1.09109 5.13452 1.77282C4.52221 2.45455 4.18386 3.26793 4.16406 4.10574C4.18538 5.13115 4.6863 6.11342 5.56898 6.86066C6.45166 7.60791 7.6527 8.06647 8.93749 8.14676C8.85134 7.80055 8.80376 7.44897 8.79531 7.0961Z" fill="black"/>
<path d="M23.1256 3.23898e-05C22.4276 0.00015466 21.7367 0.111004 21.0932 0.326098C20.4498 0.541193 19.8666 0.856216 19.3779 1.25275C20.0645 1.45074 20.7138 1.72267 21.3076 2.06096C21.7818 1.79904 22.3363 1.64443 22.9122 1.61362C23.4881 1.58281 24.0637 1.67695 24.5776 1.886C25.0916 2.09505 25.5246 2.41117 25.8305 2.80066C26.1364 3.19015 26.3037 3.63841 26.3146 4.09763C26.3082 4.56933 26.1341 5.02994 25.8124 5.42614C25.4906 5.82234 25.0345 6.13793 24.4967 6.33636C24.5375 6.58558 24.5579 6.83666 24.5576 7.08799C24.5549 7.41286 24.5209 7.73709 24.456 8.05784C25.5625 7.83148 26.5438 7.32041 27.2473 6.60416C27.9508 5.88792 28.3371 5.00669 28.3459 4.09763C28.3325 3.00438 27.7759 1.95977 26.7978 1.192C25.8197 0.424236 24.4995 -0.00429039 23.1256 3.23898e-05Z" fill="black"/>
</svg>
